<?xml version="1.0" encoding="utf-8"?>
<!-- modificado por troNpo para ExMaps renderstheme -->
<!-- Generator: Adobe Illustrator 15.0.0, SVG Export Plug-In . SVG Version: 6.00 Build 0)  -->
<!DOCTYPE svg PUBLIC "-//W3C//DTD SVG 1.1//EN" "http://www.w3.org/Graphics/SVG/1.1/DTD/svg11.dtd">
<svg version="1.1" xmlns="http://www.w3.org/2000/svg" xmlns:xlink="http://www.w3.org/1999/xlink" x="0px" y="0px" width="290px"
     height="290px" viewBox="0 0 290 290" enable-background="new 0 0 290 290" xml:space="preserve">
<g id="Layer_2_1_">
	<g id="contenedor">
		<g id="g1327">
			<circle id="path1329" fill="#734a08" stroke="#fff" stroke-width="15" cx="145" cy="145" r="137.5"/>
		</g>
	</g>
</g>
<g id="aqui_la_imagen" transform="translate(25, 10) scale(0.45)">
	<g>
		<rect x="55.256" y="398.034" fill="#FFFFFF" width="449.235" height="18.023"/>
		<rect x="37.547" y="434.142" fill="#FFFFFF" width="504.906" height="18.023"/>
		<path fill="#FFFFFF" d="M92.132,362.066l-18.814,0.003l0.003,18.023l255.424-0.041l2.922,4.173l5.961-4.175l108.805-0.018
			l-0.002-18.023l-86.307,0.014l-98.964-141.293l-2.347,1.644l-3.975-44.208l70.319,5.539l2.83-35.934L74.875,127.831l-2.831,35.934
			l20.06,1.581L92.132,362.066z M128.15,168.185l36.046,2.839l0.026,191.031l-36.046,0.006L128.15,168.185z M200.241,173.863
			l18.147,1.43l16.789,186.75l-34.91,0.006L200.241,173.863z M264.777,288.725l51.344,73.306l-44.753,0.007L264.777,288.725z"/>
	</g>
</g>
</svg>