<?xml version="1.0" encoding="utf-8"?>
<!-- modificado por troNpo para ExMaps renderstheme -->
<!-- Generator: Adobe Illustrator 15.0.0, SVG Export Plug-In . SVG Version: 6.00 Build 0)  -->
<!DOCTYPE svg PUBLIC "-//W3C//DTD SVG 1.1//EN" "http://www.w3.org/Graphics/SVG/1.1/DTD/svg11.dtd">
<svg version="1.1" xmlns="http://www.w3.org/2000/svg" xmlns:xlink="http://www.w3.org/1999/xlink" x="0px" y="0px" width="290px"
     height="290px" viewBox="0 0 290 290" enable-background="new 0 0 290 290" xml:space="preserve">
<g id="Layer_2_1_">
	<g id="contenedor">
		<g id="g1327">
			<circle id="path1329" fill="#7abcec" stroke="#fff" stroke-width="15" cx="145" cy="145" r="137.5"/>
		</g>
	</g>
</g>
<g id="spring" transform="translate(25, 20) scale(0.85)">
	<g>
		<path fill="#fff" stroke="none" stroke-width="12" d="M26.087,242.435c0,0,55.5-84.5,91-74.5s45,3.5,57,1.5
			s29.5-10,89.826,71.957L26.087,242.435z"/>
		<path fill="#fff" stroke="none" stroke-width="12" d="M148,61.935c32-21.5,62-12.5,62-12.5c-55,5.5-47.5,51
			-47.5,51c44-16,68.5,10.5,68.5,10.5
			c-64-16.5-78.5,56.177-78.5,56.177h-17.413c0,0-14.5-72.677-78.5-56.177c0,0,24.5-26.493,68.5-10.5c0,0,7.5-45.5-47.5-51
			c0,0,30-9,62,12.5C139.587,61.935,143.793,66.935,148,61.935L148,61.935z"/>
	</g>
</g>
</svg>