<?xml version="1.0" encoding="UTF-8" standalone="no"?>
<svg
   version="1.1"
   width="290"
   height="290"
   viewBox="0 0 290 290"
   id="svg3"
   sodipodi:docname="waterfall.svg"
   inkscape:version="1.3.2 (091e20e, 2023-11-25, custom)"
   xmlns:inkscape="http://www.inkscape.org/namespaces/inkscape"
   xmlns:sodipodi="http://sodipodi.sourceforge.net/DTD/sodipodi-0.dtd"
   xmlns="http://www.w3.org/2000/svg"
   xmlns:svg="http://www.w3.org/2000/svg">
  <defs
     id="defs3" />
  <sodipodi:namedview
     id="namedview3"
     pagecolor="#ffffff"
     bordercolor="#666666"
     borderopacity="1.0"
     inkscape:showpageshadow="2"
     inkscape:pageopacity="0.0"
     inkscape:pagecheckerboard="0"
     inkscape:deskcolor="#d1d1d1"
     inkscape:zoom="1.9482011"
     inkscape:cx="167.5905"
     inkscape:cy="126.52698"
     inkscape:window-width="1920"
     inkscape:window-height="1013"
     inkscape:window-x="-9"
     inkscape:window-y="-9"
     inkscape:window-maximized="1"
     inkscape:current-layer="svg3" />
  <path
     fill="#0092da"
     stroke="#eeeeee"
     stroke-width="1.71301"
     d="M 34.188608,1.7363625 C 13.393649,1.7363625 1.704,12.46902 1.704,34.397873 V 260.45263 c 0,20.51213 10.511931,31.25181 31.287772,31.25181 H 260.39761 c 20.78088,0 31.30639,-10.20232 31.30639,-31.25181 V 34.397873 c 0,-21.395007 -10.52602,-32.6615105 -31.95637,-32.6615105 -0.002,0 -225.63046,-0.071816 -225.559022,0 z"
     id="path1"
     style="stroke:none" />
  <path
     fill="#ffffff"
     d="m 71.153176,109.46923 c -10.399744,-0.0161 -37.66486,0.35355 -51.047889,0.72217 V 231.38039 H 139.55342 C 131.6691,108.04597 135.68119,96.009587 71.153176,109.46923 Z"
     id="path2"
     style="stroke-width:0.502645" />
  <path
     fill="#ffffff"
     d="m 257.08934,201.95374 c -11.75908,-0.23704 -22.66996,7.6245 -33.95814,7.56474 -11.48037,-0.27219 -22.72026,-8.22313 -33.95814,-8.6947 -0.35568,-0.0186 -0.69828,-0.0422 -1.05346,-0.0472 -11.013,-0.14815 -21.67888,6.20125 -31.9931,5.83815 -0.40749,-0.0186 -0.80694,-0.0537 -1.21042,-0.0944 v 21.95597 c 0.20275,0.0146 0.40901,0.0387 0.61326,0.0472 10.64676,0.37464 21.65121,-6.35442 33.04656,-5.83815 11.23788,0.47056 22.47777,8.4215 33.95814,8.6947 11.28818,0.0598 22.18347,-7.77115 33.94254,-7.5331 4.58611,0.10998 9.31912,1.43932 14.07074,3.04488 v -22.0971 c -4.54586,-1.5021 -9.06858,-2.72096 -13.45748,-2.84048 -11.76008,-0.23755 -22.67046,7.62399 -33.95864,7.56423 z"
     id="path3"
     style="stroke-width:0.502645" />
  <path
     fill="#ffffff"
     d="m 254.26049,158.53097 c -11.75907,-0.23704 -22.66995,7.6245 -33.95814,7.56474 -11.48036,-0.27219 -22.72026,-8.22313 -33.95814,-8.6947 -0.35568,-0.0186 -0.69828,-0.0422 -1.05345,-0.0472 -0.34411,-0.005 -0.67866,-0.008 -1.02177,0 -3.07484,0.0683 -6.12353,0.6137 -9.14555,1.3439 -0.40297,-1.87423 -1.04742,-4.12512 -1.96354,-6.81695 -3.65289,-10.04011 -9.5113,-18.67355 -13.17274,-28.46156 -3.36714,-9.96478 1.20438,-21.42363 -1.55352,-30.296107 -1.56409,-5.53181 -3.95675,-9.2632 -6.60146,-11.82395 -0.59767,-1.17768 -3.0502,-3.30603 -9.13047,-6.96611 -7.02757,-4.9598 -15.11866,-6.08172 -23.28321,-5.93257 -8.36024,0.0608 -20.34268,7.21621 -31.74155,6.90534 -11.55382,-0.56096 -24.33113,-8.76501 -36.12794,-9.08693 -0.36725,-0.008 -0.7345,-0.008 -1.10075,0 -11.34151,0.24408 -21.92186,7.59236 -32.85789,7.5331 -0.10565,-0.003 -0.20878,-0.0115 -0.31443,-0.0156 v 21.90876 c 11.18858,-0.0678 22.01343,-7.77115 33.67541,-7.5331 11.7963,0.32192 24.55802,8.49432 36.11184,9.05529 11.39886,0.31086 23.413,-6.84458 31.77274,-6.90534 4.47745,-0.0367 7.80132,1.55081 10.69606,3.19805 1.68986,1.48452 3.48486,3.20358 5.34023,5.25208 2.75841,8.872977 0.87185,21.404037 4.23999,31.368827 3.66094,9.788 5.7593,13.86291 9.41169,23.90353 0.15394,0.43139 2.61754,6.35693 3.72986,9.12559 -0.0508,-0.005 -0.10011,-0.008 -0.15143,-0.0121 v 21.95597 c 0.20275,0.0146 0.40901,0.0231 0.61326,0.0316 10.64676,0.37465 21.63561,-6.33885 33.03046,-5.82258 11.23788,0.47057 22.49336,8.4215 33.97373,8.6947 11.28819,0.0598 22.16737,-7.77114 33.92695,-7.5331 5.49569,0.13158 11.20367,2.0023 16.90059,4.01766 v -22.11262 c -5.49166,-1.91793 -10.98986,-3.65406 -16.28683,-3.79869 z"
     id="path2-8"
     style="stroke-width:0.502645"
     inkscape:label="path4" />
</svg>
