<?xml version="1.0" encoding="utf-8"?>
<!-- modificado por troNpo para ExMaps renderstheme -->
<!-- Generator: Adobe Illustrator 15.0.0, SVG Export Plug-In. SVG Version: 6.00 Build 0) -->
<!DOCTYPE svg PUBLIC "-//W3C//DTD SVG 1.1//EN" "http://www.w3.org/Graphics/SVG/1.1/DTD/svg11.dtd">
<svg version="1.1" xmlns="http://www.w3.org/2000/svg" xmlns:xlink="http://www.w3.org/1999/xlink" width="290px" height="290px" viewBox="0 0 290 290" xml:space="preserve">
  <g id="Layer_2_1_">
    <g id="contenedor">
      <g id="g1327">
        <circle id="path1329" fill="#734a08" stroke="#fff" stroke-width="15" cx="145" cy="145" r="137.5"/>
      </g>
    </g>
  </g>
  <g id="aqui_la_imagen" transform="translate(55, 55) scale(12)">
    <g>
<path fill="#fff" d="M6,5L3.5,7.5l1,1L7,6V5.5L7.5,5L8,5.5V6l2.5,2.5l1-1L9,5H8.5L8,4.5L8.5,4H9l2.5-2.5l-1-1L8,3v0.5L7.5,4L7,3.5V3L4.5,0.5
	l-1,1L6,4h0.5L7,4.5L6.5,5H6z M11.5,13h-1l-1-4l-2-2l-2,2l-1,4h-1C3.2239,13,3,13.2238,3,13.5C3,13.7761,3.2239,14,3.5,14h8
	c0.2761,0,0.5-0.2239,0.5-0.5C12,13.2238,11.7761,13,11.5,13z M8,13H7v-1.5024C7,11.2228,7.2228,11,7.4976,11
	C7.7751,11,8,11.2249,8,11.5024V13z" style="stroke-linejoin:round;stroke-miterlimit:4;" stroke="#fff" stroke-width="2"></path><path fill="#734a08"  d="M6,5L3.5,7.5l1,1L7,6V5.5L7.5,5L8,5.5V6l2.5,2.5l1-1L9,5H8.5L8,4.5L8.5,4H9l2.5-2.5l-1-1L8,3v0.5L7.5,4L7,3.5V3L4.5,0.5
	l-1,1L6,4h0.5L7,4.5L6.5,5H6z M11.5,13h-1l-1-4l-2-2l-2,2l-1,4h-1C3.2239,13,3,13.2238,3,13.5C3,13.7761,3.2239,14,3.5,14h8
	c0.2761,0,0.5-0.2239,0.5-0.5C12,13.2238,11.7761,13,11.5,13z M8,13H7v-1.5024C7,11.2228,7.2228,11,7.4976,11
	C7.7751,11,8,11.2249,8,11.5024V13z"/>
    </g>
  </g>
</svg>