<svg id="Layer_1" viewBox="0 0 24 24" xmlns="http://www.w3.org/2000/svg" data-name="Layer 1"><path d="m13.27 19.48c-.813.813-1.27 1.915-1.27 3.065v.955c0 .276.224.5.5.5h.955c1.149 0 2.252-.457 3.064-1.269l6.715-6.715c.85-.85 1.013-2.236.252-3.167-.875-1.07-2.456-1.129-3.409-.176zm-5.118-5.48c.983 0 1.92.359 2.646 1h2.404c.726-.641 1.664-1 2.646-1h.073l2.741-2.741c.857-.858 2.055-1.319 3.254-1.254.028.001.055.011.083.013v-2.018c0-2.757-2.243-5-5-5h-9.999c-2.757 0-5 2.243-5 5v6.11c.323-.067.656-.11 1-.11h5.151zm5.098-8.207c.391-.391 1.023-.391 1.414 0l1.681 1.681c.872.872.872 2.29 0 3.161l-1.653 1.586c-.398.382-1.031.369-1.414-.029-.382-.398-.369-1.032.029-1.414l1.638-1.572c.077-.077.077-.227-.015-.318l-1.681-1.681c-.391-.391-.391-1.023 0-1.414zm-5.598 1.681 1.681-1.681c.391-.391 1.023-.391 1.414 0s.391 1.023 0 1.414l-1.681 1.681c-.092.092-.092.241 0 .333l1.624 1.557c.398.382.412 1.016.029 1.414-.383.399-1.016.411-1.414.029l-1.638-1.572c-.886-.886-.886-2.304-.015-3.176zm2.545 13.526h-7.697c-1.381 0-2.5-1.119-2.5-2.5s1.119-2.5 2.5-2.5h5.651c.589 0 1.147.259 1.527.708l.247.292h2.997l-1.066 1.066c-.823.822-1.384 1.833-1.659 2.934z"/></svg>