<?xml version="1.0" encoding="UTF-8"?>
<svg xmlns="http://www.w3.org/2000/svg" id="Layer_1" data-name="Layer 1" viewBox="0 0 24 24">
  <path d="m12,18.838c-.572,0-1.143-.153-1.653-.459L.485,12.462c-.474-.284-.627-.898-.343-1.372.283-.475.897-.627,1.372-.343l9.861,5.917c.385.23.864.23,1.249,0l9.861-5.917c.474-.284,1.088-.131,1.372.343s.131,1.088-.343,1.372l-9.861,5.917c-.51.306-1.082.459-1.653.459Zm1.653,3.836l9.861-5.917c.474-.284.627-.898.343-1.372s-.898-.627-1.372-.343l-9.862,5.917c-.384.23-.863.23-1.248,0L1.515,15.042c-.475-.285-1.089-.131-1.372.343-.284.474-.131,1.088.343,1.372l9.861,5.917c.51.307,1.082.459,1.654.459s1.144-.152,1.653-.459Zm-1.653-16.84l5.308-3.185L13.653.456c-1.02-.612-2.287-.612-3.307,0l-3.655,2.193,5.308,3.185Zm11.515.539l-4.263-2.558-5.308,3.185,5.692,3.415,3.879-2.327c.301-.181.485-.506.485-.857s-.184-.677-.485-.857Zm-13.459.627l-5.308-3.185L.485,6.373c-.301.181-.485.506-.485.857s.184.677.485.857l3.879,2.327,5.692-3.415Zm1.944,1.166l-5.692,3.415,4.039,2.423c.51.306,1.081.459,1.653.459s1.143-.153,1.653-.459l4.039-2.423-5.692-3.415Z"/>
</svg>
