<?xml version="1.0" encoding="UTF-8"?>
<svg xmlns="http://www.w3.org/2000/svg" id="Layer_1" data-name="Layer 1" viewBox="0 0 24 24">
  <path d="M14.439,14.882l-3.547,5.112c-.581,.837-.892,1.832-.892,2.851h0c0,.638-.517,1.156-1.156,1.156H1.156c-.638,0-1.156-.517-1.156-1.156v-5.807c0-2.884,1.245-5.627,3.415-7.526l3.585-3.137v6.185l-1.388,1.242c-.412,.368-.447,1-.078,1.412h0c.368,.412,1,.447,1.412,.078l4.136-3.701c.878-.778,2.194-.791,3.088-.032,.992,.843,1.113,2.33,.27,3.321Zm1.656,1.118h7.905v1.5c0,2.485-2.015,4.5-4.5,4.5h-7.5s4.073-5.971,4.095-6Zm.905,2h-1c-.552,0-1,.448-1,1h0c0,.552,.448,1,1,1h1c.552,0,1-.448,1-1h0c0-.552-.448-1-1-1ZM13,0c-2.209,0-4,1.791-4,4v6.771l.756-.676c1.56-1.427,4.119-1.452,5.708-.058,1.141,.957,1.724,2.493,1.477,3.964h7.059V4c0-2.209-1.791-4-4-4h-7Z"/>
</svg>
