<svg id="Layer_1" viewBox="0 0 24 24" xmlns="http://www.w3.org/2000/svg" data-name="Layer 1"><path d="m21 23c0 .552-.448 1-1 1s-1-.448-1-1 .448-1 1-1 1 .448 1 1zm2-4c-.552 0-1 .448-1 1s.448 1 1 1 1-.448 1-1-.448-1-1-1zm-3 0c-.552 0-1 .448-1 1s.448 1 1 1 1-.448 1-1-.448-1-1-1zm-2-4v1c0 1.103-.897 2-2 2h-1c-1.103 0-2-.897-2-2v-1c0-1.103.897-2 2-2h1c1.103 0 2 .897 2 2zm-1.999 1v-1h-1.001v1zm1.999 5v1c0 1.103-.897 2-2 2h-1c-1.103 0-2-.897-2-2v-1c0-1.103.897-2 2-2h1c1.103 0 2 .897 2 2zm-1.999 1v-1h-1.001v1zm7.999-7v1c0 1.103-.897 2-2 2h-1c-1.103 0-2-.897-2-2v-1c0-1.103.897-2 2-2h1c1.103 0 2 .897 2 2zm-1.999 1v-1h-1.001v1zm-2.075-4.833c-.525.153-1.01.399-1.426.735-.687-.556-1.549-.903-2.5-.903h-1c-2.206 0-4 1.794-4 4v-5c0-1.103-.897-2-2-2-.552 0-1 .448-1 1s.448 1 1 1v5c0 .552.448 1 1 1s1-.448 1-1v1c0 .951.347 1.813.903 2.5-.336.416-.583.901-.736 1.426-.384.045-.772.074-1.167.074h-6c-2.206 0-4-1.794-4-4v-6c0-5.513 4.486-9.999 10-9.999s10 4.486 10 10c0 .396-.029.784-.074 1.167zm-8.426-5.667c0-.828-.672-1.5-1.5-1.5s-1.5.672-1.5 1.5.672 1.5 1.5 1.5 1.5-.672 1.5-1.5z"/></svg>