<?xml version="1.0" encoding="UTF-8"?>
<svg xmlns="http://www.w3.org/2000/svg" id="Layer_1" data-name="Layer 1" viewBox="0 0 24 24">
  <path d="m16.949,2.05c-1.321-1.322-3.079-2.05-4.949-2.05s-3.627.728-4.95,2.05c-2.729,2.729-2.729,7.17.008,9.907l2.495,2.44c.675.66,1.561.99,2.447.99s1.772-.33,2.447-.99l2.502-2.448c1.322-1.322,2.051-3.08,2.051-4.95s-.729-3.627-2.051-4.95Zm-4.949,7.94c-1.657,0-3-1.343-3-3s1.343-3,3-3,3,1.343,3,3-1.343,3-3,3Zm-4.567,5.131l-.122.879H.628l.459-2.676c.246-1.435,1.23-2.577,2.524-3.066.449,1.156,1.14,2.219,2.049,3.129l1.773,1.734ZM.285,18h6.747l-.834,6h-2.198c-1.178,0-2.291-.516-3.052-1.415-.762-.899-1.087-2.081-.893-3.243l.23-1.342Zm14.862,0l.835,6h-7.765l.834-6h6.096Zm8.225-2h-6.485l-.146-1.049,1.622-1.587c.899-.899,1.584-1.954,2.03-3.104,1.292.49,2.274,1.63,2.52,3.064l.459,2.676Zm-.32,6.586c-.762.898-1.874,1.414-3.052,1.414h-2l-.835-6h6.55l.229,1.338c.194,1.167-.131,2.349-.893,3.248Z"/>
</svg>
