<?xml version="1.0" encoding="UTF-8"?>
<svg xmlns="http://www.w3.org/2000/svg" id="Layer_1" data-name="Layer 1" viewBox="0 0 24 24">
  <path d="m23.705,18.549c-.896-1.325-2.959-3.549-6.705-3.549s-5.81,2.224-6.705,3.549c-.391.577-.392,1.323,0,1.902.896,1.325,2.96,3.549,6.706,3.549s5.809-2.224,6.705-3.549c.391-.578.391-1.324,0-1.902Zm-6.705,2.951c-1.105,0-2-.895-2-2s.895-2,2-2,2,.895,2,2-.895,2-2,2Zm-8.362.072c-.852-1.262-.851-2.888.001-4.146,1.116-1.651,3.689-4.427,8.361-4.427,3.311,0,5.568,1.395,7,2.796V5c0-2.761-2.239-5-5-5H5C2.239,0,0,2.239,0,5v13c0,2.761,2.239,5,5,5h4.797c-.489-.506-.872-1.004-1.159-1.428Zm2.362-16.572h7c.552,0,1,.448,1,1s-.448,1-1,1h-7c-.552,0-1-.448-1-1s.448-1,1-1Zm0,5h7c.552,0,1,.448,1,1s-.448,1-1,1h-7c-.552,0-1-.448-1-1s.448-1,1-1Zm-4.5-5.5c.828,0,1.5.672,1.5,1.5s-.672,1.5-1.5,1.5-1.5-.672-1.5-1.5.672-1.5,1.5-1.5Zm0,5c.828,0,1.5.672,1.5,1.5s-.672,1.5-1.5,1.5-1.5-.672-1.5-1.5.672-1.5,1.5-1.5Zm0,8c-.828,0-1.5-.672-1.5-1.5s.672-1.5,1.5-1.5,1.5.672,1.5,1.5-.672,1.5-1.5,1.5Z"/>
</svg>
